<?xml version="1.0" encoding="UTF-8" standalone="no"?>
<!-- Created with Inkscape (http://www.inkscape.org/) -->

<svg
   id="svg2"
   sodipodi:docname="alert-off.svg"
   inkscape:export-filename="C:\Documents and Settings\André\Desktop\ico.png"
   viewBox="0 0 355.96 360.12"
   sodipodi:version="0.32"
   inkscape:export-xdpi="300"
   version="1.0"
   inkscape:output_extension="org.inkscape.output.svg.inkscape"
   inkscape:export-ydpi="300"
   inkscape:version="1.2 (dc2aedaf03, 2022-05-15)"
   xmlns:inkscape="http://www.inkscape.org/namespaces/inkscape"
   xmlns:sodipodi="http://sodipodi.sourceforge.net/DTD/sodipodi-0.dtd"
   xmlns="http://www.w3.org/2000/svg"
   xmlns:svg="http://www.w3.org/2000/svg"
   xmlns:rdf="http://www.w3.org/1999/02/22-rdf-syntax-ns#"
   xmlns:cc="http://creativecommons.org/ns#"
   xmlns:dc="http://purl.org/dc/elements/1.1/">
  <defs
     id="defs4">
    <filter
       id="filter3505"
       inkscape:collect="always"
       x="-0.023905264"
       y="-0.023905264"
       width="1.0478105"
       height="1.0478105">
      <feGaussianBlur
         id="feGaussianBlur3507"
         stdDeviation="3.1241851"
         inkscape:collect="always" />
    </filter>
    <linearGradient
       id="linearGradient3270"
       y2="212.59"
       gradientUnits="userSpaceOnUse"
       x2="267.58"
       gradientTransform="translate(247.16 113.21)"
       y1="307.63"
       x1="266.85"
       inkscape:collect="always">
      <stop
         id="stop2436"
         style="stop-color:rgb(203, 203, 203)"
         offset="0" />
      <stop
         id="stop2438"
         style="stop-color:rgb(255, 255, 255)"
         offset="1" />
    </linearGradient>
  </defs>
  <sodipodi:namedview
     id="base"
     bordercolor="#666666"
     inkscape:pageshadow="2"
     inkscape:window-y="17"
     pagecolor="#ffffff"
     inkscape:window-height="968"
     inkscape:zoom="0.78490088"
     inkscape:window-x="3013"
     showgrid="false"
     borderopacity="1.0"
     inkscape:current-layer="layer5"
     inkscape:cx="296.21575"
     inkscape:cy="372.0215"
     showguides="true"
     inkscape:guide-bbox="true"
     inkscape:window-width="1247"
     inkscape:pageopacity="0.0"
     inkscape:document-units="px"
     inkscape:showpageshadow="2"
     inkscape:pagecheckerboard="0"
     inkscape:deskcolor="#d1d1d1"
     inkscape:window-maximized="0" />
  <g
     id="layer5"
     inkscape:label="Circulo Branco Fora"
     inkscape:groupmode="layer"
     transform="translate(-355.48 -180.52)">
    <path
       id="path3431"
       sodipodi:rx="156.82831"
       sodipodi:ry="156.82831"
       style="opacity:.58704;filter:url(#filter3505);fill:#000000"
       sodipodi:type="arc"
       d="m351.24 127.62a156.83 156.83 0 1 1 -313.66 0 156.83 156.83 0 1 1 313.66 0z"
       transform="matrix(1.1286 0 0 1.1481 315.05 214.06)"
       sodipodi:cy="127.62191"
       sodipodi:cx="194.40929" />
    <path
       id="path3220"
       sodipodi:rx="156.82831"
       sodipodi:ry="156.82831"
       style="fill:#ffffff"
       sodipodi:type="arc"
       d="m351.24 127.62a156.83 156.83 0 1 1 -313.66 0 156.83 156.83 0 1 1 313.66 0z"
       transform="matrix(1.109 0 0 1.109 313.8 215.27)"
       sodipodi:cy="127.62191"
       sodipodi:cx="194.40929" />
    <path
       id="path3411"
       sodipodi:rx="156.82831"
       sodipodi:ry="156.82831"
       style="fill:#b3b3b3;fill-opacity:0.36000001"
       sodipodi:type="arc"
       d="m351.24 127.62a156.83 156.83 0 1 1 -313.66 0 156.83 156.83 0 1 1 313.66 0z"
       transform="matrix(1.0113 0 0 1.0113 332.81 227.74)"
       sodipodi:cy="127.62191"
       sodipodi:cx="194.40929" />
  </g>
  <g
     id="layer2"
     inkscape:label="Base"
     inkscape:groupmode="layer"
     transform="translate(-355.48 -180.52)" />
  <g
     id="layer3"
     style="opacity:.73620"
     inkscape:label="brilho2"
     inkscape:groupmode="layer"
     transform="translate(-355.48 -180.52)" />
  <g
     id="layer4"
     style="opacity:.80921"
     inkscape:label="brilho"
     inkscape:groupmode="layer"
     transform="translate(-355.48 -180.52)" />
  <g
     id="layer7"
     inkscape:label="Sombra triangulo"
     inkscape:groupmode="layer"
     transform="translate(-355.48 -180.52)" />
  <g
     id="layer1"
     inkscape:label="Triangulo"
     inkscape:groupmode="layer"
     transform="translate(-355.48 -180.52)">
    <path
       id="rect3518"
       sodipodi:nodetypes="cccscccczc"
       style="stroke:#cccccc;stroke-width:5.4;fill:url(#linearGradient3270)"
       d="m545.97 238.69l98.7 166.41c5.81 9.48 7.96 14 7.73 18.22 0 0 1.42 10.74-7.28 15.94-4.4 2.62-13.29 1.88-13.29 1.88l-203.06-0.32c-7.22-0.07-21.69 1.44-25.49-13.93-0.58-7.12 1.91-13.48 7.5-21.79l98.7-166.41c7.21-12.16 28.57-12.45 36.49 0z" />
    <path
       id="text2428"
       style="fill:#000000"
       d="m527.32 248.83c-9.48 0-13.96 2.37-13.96 7.9 0 4.21 0.79 10.27 1.85 21.06 3.68 30.02 5.26 60.56 7.63 94.27 1.32 1.84 7.9 1.84 9.22 0 2.37-33.71 4.21-64.25 7.63-94.27 1.32-10.79 1.85-16.85 1.85-21.06 0-5.53-4.48-7.9-13.96-7.9h-0.26m0.26 178.26c8.69 0 15.01-6.06 15.01-15.54 0-8.69-6.32-15.27-15.01-15.27-8.42 0-14.74 6.58-14.74 15.27 0 9.48 6.32 15.54 14.48 15.54h0.26" />
  </g>
  <metadata
     id="metadata33">
    <rdf:RDF>
      <cc:Work>
        <dc:format>image/svg+xml</dc:format>
        <dc:type
           rdf:resource="http://purl.org/dc/dcmitype/StillImage" />
        <cc:license
           rdf:resource="http://creativecommons.org/licenses/publicdomain/" />
        <dc:publisher>
          <cc:Agent
             rdf:about="http://openclipart.org/">
            <dc:title>Openclipart</dc:title>
          </cc:Agent>
        </dc:publisher>
        <dc:title>alert red icon</dc:title>
        <dc:date>2008-12-15T16:05:46</dc:date>
        <dc:description>An red alert icon.</dc:description>
        <dc:source>https://openclipart.org/detail/20715/alert-red-icon-by-mestre_kame</dc:source>
        <dc:creator>
          <cc:Agent>
            <dc:title>mestre_kame</dc:title>
          </cc:Agent>
        </dc:creator>
        <dc:subject>
          <rdf:Bag>
            <rdf:li>alert</rdf:li>
            <rdf:li>aqua icon</rdf:li>
            <rdf:li>gel icon</rdf:li>
            <rdf:li>icon</rdf:li>
            <rdf:li>stop</rdf:li>
          </rdf:Bag>
        </dc:subject>
      </cc:Work>
      <cc:License
         rdf:about="http://creativecommons.org/licenses/publicdomain/">
        <cc:permits
           rdf:resource="http://creativecommons.org/ns#Reproduction" />
        <cc:permits
           rdf:resource="http://creativecommons.org/ns#Distribution" />
        <cc:permits
           rdf:resource="http://creativecommons.org/ns#DerivativeWorks" />
      </cc:License>
    </rdf:RDF>
  </metadata>
</svg>
