<?xml version="1.0" standalone="no"?>
<!DOCTYPE svg PUBLIC "-//W3C//DTD SVG 1.0//EN" "http://www.w3.org/TR/2001/REC-SVG-20010904/DTD/svg10.dtd">
<svg fill="#000000" height="800px" width="800px" version="1.1" id="1" xmlns="http://www.w3.org/2000/svg" xmlns:xlink="http://www.w3.org/1999/xlink" viewBox="0 0 60.051 60.051" xml:space="preserve" xmlns:inkscape ="http://www.inkscape.org/namespaces/inkscape" >
<desc>CopyRight:SVG Design Editor;
configurationStart;Unit=smInches;Dpi=96;Division=4;Grid=True;Zoom=1;CanvasW=800;CanvasH=800;configurationEnd;</desc>


<g inkscape:label = "security-camera-alarmed Default Layer" inkscape:groupmode = "layer" ><g id="group_4">
<path style="fill:Black;stroke:none; stroke-width:1" d="m56.96,32.03l-1.82,0c-1.7,0 -3.09,1.38 -3.09,3.09l0,3.91l-10,0l0,-6.22c3.65,-1.18 5.96,-6.05 5.96,-12.78c0,-7.24 -2.67,-12.33 -6.8,-12.99c-0.05,-0.01 -0.1,-0.01 -0.16,-0.01l-40,0c-0.48,0 -0.89,0.34 -0.98,0.82l0,0c-0.02,0.11 -0.47,2.65 1.24,4.71c1.14,1.37 2.92,2.17 5.29,2.4c-0.36,1.59 -0.55,3.31 -0.55,5.08c0,7.29 3.08,13 7,13l21,0l0,12.97c0,1.67 1.36,3.03 3.03,3.03l1.94,0c1.31,0 2.42,-0.84 2.84,-2l10.19,0l0,2.91c0,1.7 1.38,3.09 3.09,3.09l1.82,0c1.7,0 3.09,-1.38 3.09,-3.09l0,-14.82c0,-1.7 -1.39,-3.09 -3.09,-3.09l0,0zm-16,-23c2.4,0.44 4.79,3.68 5.02,10l-20.52,0l-3.71,-3.71c-0.19,-0.19 -0.44,-0.29 -0.71,-0.29l-2,0l-0.35,0l-3.98,0l-1.07,0c-0.01,-0.01 -0.02,-0.03 -0.03,-0.04c-0.1,-0.16 -0.22,-0.33 -0.34,-0.49c-0.07,-0.09 -0.14,-0.18 -0.22,-0.27c-0.03,-0.04 -0.06,-0.08 -0.1,-0.12c-0.04,-0.05 -0.08,-0.09 -0.12,-0.14c-0.04,-0.05 -0.08,-0.1 -0.12,-0.15c-0.02,-0.02 -0.04,-0.03 -0.06,-0.05c-0.11,-0.12 -0.23,-0.24 -0.35,-0.36c-0.08,-0.08 -0.16,-0.15 -0.24,-0.23c-0.2,-0.19 -0.41,-0.37 -0.63,-0.56c-0.18,-0.15 -0.37,-0.3 -0.56,-0.44c-0.09,-0.07 -0.17,-0.13 -0.26,-0.2c-1.51,-1.13 -3.26,-2.13 -4.85,-2.93l35.2,0l0,0zm-26.92,9.67c0,2.09 -0.6,3.47 -1,4.07c-0.4,-0.6 -1,-1.98 -1,-4.07c0,-0.81 0.09,-1.49 0.21,-2.05c0,0.01 0.01,0.01 0.02,0.01c0.08,0.1 0.19,0.18 0.3,0.25c0.02,0.01 0.05,0.02 0.08,0.03c0.12,0.05 0.26,0.09 0.4,0.09l0.86,0c0.09,0.53 0.14,1.09 0.14,1.67zm-11.19,-7.4c-0.48,-0.57 -0.7,-1.22 -0.79,-1.77c1.51,0.65 3.51,1.61 5.35,2.72c-0.1,0.25 -0.19,0.5 -0.28,0.76c-2,-0.13 -3.44,-0.7 -4.29,-1.7zm5.19,8.73c0,-2.42 0.38,-4.74 1.09,-6.67c0.02,0.01 0.04,0.03 0.06,0.04c0.62,0.44 1.13,0.88 1.58,1.3c-0.35,0.86 -0.72,2.2 -0.72,3.99c0,3.37 1.4,6.33 3,6.33s3,-2.96 3,-6.33c0,-0.57 -0.05,-1.12 -0.12,-1.67l1.92,0c0.14,0.99 0.2,1.99 0.2,3c0,6.2 -2.69,11 -5,11c-2.36,0 -5,-4.52 -5,-11zm8.67,11c0.03,-0.03 0.05,-0.08 0.08,-0.11c0.19,-0.23 0.38,-0.48 0.55,-0.74c0.03,-0.04 0.06,-0.08 0.09,-0.13c0.2,-0.31 0.4,-0.65 0.58,-1c0.05,-0.09 0.09,-0.19 0.14,-0.29c0.13,-0.27 0.26,-0.55 0.38,-0.84c0.05,-0.12 0.1,-0.25 0.15,-0.38c0.12,-0.3 0.23,-0.62 0.33,-0.94c0.03,-0.11 0.07,-0.21 0.1,-0.32c0.13,-0.43 0.25,-0.87 0.35,-1.33c0.02,-0.09 0.04,-0.18 0.06,-0.28c0.08,-0.37 0.15,-0.75 0.21,-1.14c0.02,-0.16 0.05,-0.31 0.07,-0.47c0.05,-0.35 0.09,-0.7 0.12,-1.06c0.01,-0.15 0.03,-0.3 0.04,-0.46c0.03,-0.5 0.06,-1.01 0.06,-1.53l0,-3l0.59,0l3.71,3.71c0.19,0.19 0.44,0.29 0.71,0.29l20.93,0c-0.23,6.32 -2.62,9.56 -5.02,10l-6.92,0l-17.33,0zm22.3,16l-1.94,0c-0.57,0 -1.03,-0.46 -1.03,-1.03l0,-12.97l4,0l0,6l0,6.97c0,0.57 -0.46,1.03 -1.03,1.03zm3.03,-2l0,-4l10,0l0,4l-10,0zm16,4.91c0,0.6 -0.49,1.09 -1.09,1.09l-1.82,0c-0.6,0 -1.09,-0.49 -1.09,-1.09l0,-2.91l0,-8l0,-3.91c0,-0.6 0.49,-1.09 1.09,-1.09l1.82,0c0.6,0 1.09,0.49 1.09,1.09l0,14.82z" transform = "matrix(0.627512,0,0,0.6275123,-1.274466,-1.274465)" vector-effect="non-scaling-stroke" pen = "0.6275126,0.6275129" />
<circle style="fill:Black;stroke:none; stroke-width:1" cx = "32.051" cy = "27.026" r = "0.01041667in" transform = "matrix(0.6275121,0,0,0.6275122,-1.274465,-1.274465)" vector-effect="non-scaling-stroke" pen = "0.6275128,0.6275128" />
<circle style="fill:Black;stroke:none; stroke-width:1" cx = "28.051" cy = "27.026" r = "0.01041667in" transform = "matrix(0.6275121,0,0,0.6275122,-1.274465,-1.274465)" vector-effect="non-scaling-stroke" pen = "0.6275129,0.6275128" />
<circle style="fill:Black;stroke:none; stroke-width:1" cx = "24.051" cy = "27.026" r = "0.01041667in" transform = "matrix(0.6275121,0,0,0.6275122,-1.274465,-1.274465)" vector-effect="non-scaling-stroke" pen = "0.6275129,0.6275128" />
</g>
<g id="group_8">
<path style="fill:#6C686F;stroke:none; stroke-width:1" d="m53.33,501.33l405.33,0l0,-42.67c0,-23.47 -19.2,-42.66 -42.66,-42.66l-10.67,0l-298.66,0l-10.67,0c-23.47,0 -42.67,19.2 -42.67,42.66l0,42.67l0,0l0,0z" transform = "matrix(0.05236118,0,0,0.05236112,13.15525,-2.844746)" vector-effect="non-scaling-stroke" pen = "0.05236151,0.05236153" />
<path style="fill:#BF2345;stroke:none; stroke-width:1" d="m106.67,416l298.66,0l0,-149.33c0,-82.13 -67.2,-149.33 -149.33,-149.33s-149.33,67.2 -149.33,149.33l0,149.33z" transform = "matrix(0.05236115,0,0,0.05236109,13.15525,-2.844747)" vector-effect="non-scaling-stroke" pen = "0.05236149,0.05236145" />
</g>
<g id="group_9">
<path style="fill:#000003;stroke:none; stroke-width:1" d="m416,405.33l0,-138.66c0,-88.23 -71.78,-160 -160,-160c-88.23,0 -160,71.78 -160,160l0,138.66c-29.41,0 -53.34,23.93 -53.34,53.33l0,42.67c0,5.89 4.78,10.67 10.67,10.67l405.33,0c5.89,0 10.67,-4.78 10.67,-10.67l0,-42.67c0,-29.41 -23.93,-53.33 -53.33,-53.33zm-160,-277.32c76.46,0 138.66,62.2 138.66,138.66l0,138.66l-127.99,0l0,-97.35c18.38,-4.75 32,-21.47 32,-41.32c0,-23.53 -19.14,-42.67 -42.67,-42.67c-23.53,0 -42.67,19.14 -42.67,42.67c0,19.84 13.62,36.57 32,41.32l0,97.35l-128,0l0,-138.66c0,-76.46 62.21,-138.66 138.66,-138.66l0,0zm0,159.99c-11.76,0 -21.33,-9.57 -21.33,-21.33c0,-11.76 9.57,-21.33 21.33,-21.33c11.76,0 21.33,9.57 21.33,21.33c0,11.76 -9.57,21.33 -21.33,21.33zm192,202.66l-383.99,0l0,-32c0,-17.64 14.36,-32 32,-32l320,0c17.64,0 32,14.35 32,32l0,32l0,0z" transform = "matrix(0.05236113,0,0,0.05236113,13.15525,-2.844747)" vector-effect="non-scaling-stroke" pen = "0.05236149,0.05236153" />
<path style="fill:#000003;stroke:none; stroke-width:1" d="m69.34,266.67c0,-5.89 -4.78,-10.67 -10.67,-10.67l-48,0c-5.89,0 -10.67,4.78 -10.67,10.67c0,5.89 4.78,10.67 10.67,10.67l48,0c5.89,0 10.67,-4.78 10.67,-10.67z" transform = "matrix(0.0523611,0,0,0.05236115,13.15525,-2.844747)" vector-effect="non-scaling-stroke" pen = "0.05236149,0.05236155" />
<path style="fill:#000003;stroke:none; stroke-width:1" d="m148.1,101.11c1.98,3.42 5.56,5.34 9.25,5.34c1.81,0 3.64,-0.46 5.32,-1.43c5.1,-2.95 6.85,-9.47 3.9,-14.57l-24,-41.57c-2.95,-5.1 -9.47,-6.85 -14.57,-3.9c-5.1,2.95 -6.85,9.47 -3.9,14.57l24,41.57z" transform = "matrix(0.05236113,0,0,0.0523611,13.15525,-2.844745)" vector-effect="non-scaling-stroke" pen = "0.05236153,0.05236148" />
<path style="fill:#000003;stroke:none; stroke-width:1" d="m256,80.01c5.89,0 10.67,-4.78 10.67,-10.67l0,-58.67c0,-5.89 -4.78,-10.67 -10.67,-10.67c-5.89,0 -10.67,4.78 -10.67,10.67l0,58.67c0,5.89 4.78,10.67 10.67,10.67z" transform = "matrix(0.05236118,0,0,0.05236113,13.15525,-2.844745)" vector-effect="non-scaling-stroke" pen = "0.05236152,0.05236152" />
<path style="fill:#000003;stroke:none; stroke-width:1" d="m28.97,147.91l50.8,29.33c1.68,0.97 3.51,1.43 5.32,1.43c3.69,0 7.27,-1.91 9.25,-5.34c2.95,-5.1 1.2,-11.63 -3.9,-14.57l-50.8,-29.33c-5.1,-2.94 -11.63,-1.2 -14.57,3.9c-2.95,5.1 -1.2,11.63 3.9,14.57l0,0z" transform = "matrix(0.05236115,0,0,0.0523611,13.15525,-2.844748)" vector-effect="non-scaling-stroke" pen = "0.05236148,0.05236148" />
<path style="fill:#000003;stroke:none; stroke-width:1" d="m426.9,178.67c1.81,0 3.64,-0.46 5.33,-1.43l50.81,-29.33c5.1,-2.95 6.85,-9.47 3.9,-14.57c-2.95,-5.1 -9.47,-6.85 -14.57,-3.9l-50.81,29.33c-5.1,2.95 -6.85,9.47 -3.9,14.57c1.97,3.42 5.56,5.34 9.25,5.34z" transform = "matrix(0.05236112,0,0,0.05236113,13.15525,-2.844747)" vector-effect="non-scaling-stroke" pen = "0.05236148,0.0523615" />
<path style="fill:#000003;stroke:none; stroke-width:1" d="m349.33,105.01c1.68,0.97 3.51,1.43 5.32,1.43c3.69,0 7.27,-1.91 9.25,-5.34l24,-41.57c2.95,-5.1 1.2,-11.63 -3.9,-14.57c-5.1,-2.95 -11.63,-1.2 -14.57,3.9l-24,41.57c-2.95,5.1 -1.2,11.63 3.9,14.57z" transform = "matrix(0.05236113,0,0,0.05236111,13.15525,-2.844747)" vector-effect="non-scaling-stroke" pen = "0.05236152,0.05236154" />
<path style="fill:#000003;stroke:none; stroke-width:1" d="m501.33,256l-48,0c-5.89,0 -10.67,4.78 -10.67,10.67c0,5.89 4.78,10.67 10.67,10.67l48,0c5.89,0 10.67,-4.78 10.67,-10.67s-4.78,-10.67 -10.67,-10.67z" transform = "matrix(0.05236114,0,0,0.05236115,13.15525,-2.844747)" vector-effect="non-scaling-stroke" pen = "0.05236151,0.05236155" />
<path style="fill:#000003;stroke:none; stroke-width:1" d="m149.34,277.34c5.89,0 10.67,-4.78 10.67,-10.67l0,-0.48c0,-5.89 -4.78,-10.67 -10.67,-10.67c-5.89,0 -10.67,4.78 -10.67,10.67l0,0.48c0,5.89 4.78,10.67 10.67,10.67z" transform = "matrix(0.05236118,0,0,0.05236112,13.15525,-2.844747)" vector-effect="non-scaling-stroke" pen = "0.05236155,0.05236151" />
<path style="fill:#000003;stroke:none; stroke-width:1" d="m151.11,244.56c1.07,0.34 2.16,0.5 3.23,0.5c4.52,0 8.73,-2.9 10.17,-7.44c12.71,-40.04 49.48,-66.95 91.5,-66.95c5.89,0 10.67,-4.78 10.67,-10.67c0,-5.89 -4.78,-10.67 -10.67,-10.67c-51.35,0 -96.3,32.88 -111.83,81.83c-1.78,5.62 1.33,11.61 6.94,13.4z" transform = "matrix(0.05236111,0,0,0.05236111,13.15525,-2.844748)" vector-effect="non-scaling-stroke" pen = "0.05236148,0.05236151" />
<path style="fill:#000003;stroke:none; stroke-width:1" d="m374.43,448l-54.44,0c-5.89,0 -10.67,4.78 -10.67,10.67c0,5.89 4.78,10.67 10.67,10.67l54.44,0c5.89,0 10.67,-4.78 10.67,-10.67c0,-5.89 -4.78,-10.67 -10.67,-10.67z" transform = "matrix(0.05236118,0,0,0.05236112,13.15525,-2.844747)" vector-effect="non-scaling-stroke" pen = "0.05236154,0.05236148" />
<path style="fill:#000003;stroke:none; stroke-width:1" d="m405.33,448l-0.25,0c-5.89,0 -10.67,4.78 -10.67,10.67c0,5.89 4.78,10.67 10.67,10.67l0.25,0c5.89,0 10.67,-4.78 10.67,-10.67c0,-5.89 -4.78,-10.67 -10.67,-10.67z" transform = "matrix(0.05236113,0,0,0.05236112,13.15525,-2.844747)" vector-effect="non-scaling-stroke" pen = "0.05236155,0.05236147" />
</g>
</g>
</svg>
