<?xml version="1.0" standalone="no"?>
<!DOCTYPE svg PUBLIC "-//W3C//DTD SVG 1.0//EN" "http://www.w3.org/TR/2001/REC-SVG-20010904/DTD/svg10.dtd">
<svg fill="#000000" height="800px" width="800px" version="1.1" id="1" xmlns="http://www.w3.org/2000/svg" xmlns:xlink="http://www.w3.org/1999/xlink" viewBox="0 0 60.051 60.051" xml:space="preserve" xmlns:inkscape ="http://www.inkscape.org/namespaces/inkscape" >
<desc>CopyRight:SVG Design Editor;
configurationStart;Unit=smInches;Dpi=96;Division=4;Grid=True;Zoom=1;CanvasW=800;CanvasH=800;configurationEnd;</desc>


<g inkscape:label = "security-camera Default Layer" inkscape:groupmode = "layer" ><g id="group_4">
<path style="fill:Black;stroke:none; stroke-width:1" d="m56.96,32.03l-1.82,0c-1.7,0 -3.09,1.38 -3.09,3.09l0,3.91l-10,0l0,-6.22c3.65,-1.18 5.96,-6.05 5.96,-12.78c0,-7.24 -2.67,-12.33 -6.8,-12.99c-0.05,-0.01 -0.1,-0.01 -0.16,-0.01l-40,0c-0.48,0 -0.89,0.34 -0.98,0.82l0,0c-0.02,0.11 -0.47,2.65 1.24,4.71c1.14,1.37 2.92,2.17 5.29,2.4c-0.36,1.59 -0.55,3.31 -0.55,5.08c0,7.29 3.08,13 7,13l21,0l0,12.97c0,1.67 1.36,3.03 3.03,3.03l1.94,0c1.31,0 2.42,-0.84 2.84,-2l10.19,0l0,2.91c0,1.7 1.38,3.09 3.09,3.09l1.82,0c1.7,0 3.09,-1.38 3.09,-3.09l0,-14.82c0,-1.7 -1.39,-3.09 -3.09,-3.09l0,0zm-16,-23c2.4,0.44 4.79,3.68 5.02,10l-20.52,0l-3.71,-3.71c-0.19,-0.19 -0.44,-0.29 -0.71,-0.29l-2,0l-0.35,0l-3.98,0l-1.07,0c-0.01,-0.01 -0.02,-0.03 -0.03,-0.04c-0.1,-0.16 -0.22,-0.33 -0.34,-0.49c-0.07,-0.09 -0.14,-0.18 -0.22,-0.27c-0.03,-0.04 -0.06,-0.08 -0.1,-0.12c-0.04,-0.05 -0.08,-0.09 -0.12,-0.14c-0.04,-0.05 -0.08,-0.1 -0.12,-0.15c-0.02,-0.02 -0.04,-0.03 -0.06,-0.05c-0.11,-0.12 -0.23,-0.24 -0.35,-0.36c-0.08,-0.08 -0.16,-0.15 -0.24,-0.23c-0.2,-0.19 -0.41,-0.37 -0.63,-0.56c-0.18,-0.15 -0.37,-0.3 -0.56,-0.44c-0.09,-0.07 -0.17,-0.13 -0.26,-0.2c-1.51,-1.13 -3.26,-2.13 -4.85,-2.93l35.2,0l0,0zm-26.92,9.67c0,2.09 -0.6,3.47 -1,4.07c-0.4,-0.6 -1,-1.98 -1,-4.07c0,-0.81 0.09,-1.49 0.21,-2.05c0,0.01 0.01,0.01 0.02,0.01c0.08,0.1 0.19,0.18 0.3,0.25c0.02,0.01 0.05,0.02 0.08,0.03c0.12,0.05 0.26,0.09 0.4,0.09l0.86,0c0.09,0.53 0.14,1.09 0.14,1.67zm-11.19,-7.4c-0.48,-0.57 -0.7,-1.22 -0.79,-1.77c1.51,0.65 3.51,1.61 5.35,2.72c-0.1,0.25 -0.19,0.5 -0.28,0.76c-2,-0.13 -3.44,-0.7 -4.29,-1.7zm5.19,8.73c0,-2.42 0.38,-4.74 1.09,-6.67c0.02,0.01 0.04,0.03 0.06,0.04c0.62,0.44 1.13,0.88 1.58,1.3c-0.35,0.86 -0.72,2.2 -0.72,3.99c0,3.37 1.4,6.33 3,6.33s3,-2.96 3,-6.33c0,-0.57 -0.05,-1.12 -0.12,-1.67l1.92,0c0.14,0.99 0.2,1.99 0.2,3c0,6.2 -2.69,11 -5,11c-2.36,0 -5,-4.52 -5,-11zm8.67,11c0.03,-0.03 0.05,-0.08 0.08,-0.11c0.19,-0.23 0.38,-0.48 0.55,-0.74c0.03,-0.04 0.06,-0.08 0.09,-0.13c0.2,-0.31 0.4,-0.65 0.58,-1c0.05,-0.09 0.09,-0.19 0.14,-0.29c0.13,-0.27 0.26,-0.55 0.38,-0.84c0.05,-0.12 0.1,-0.25 0.15,-0.38c0.12,-0.3 0.23,-0.62 0.33,-0.94c0.03,-0.11 0.07,-0.21 0.1,-0.32c0.13,-0.43 0.25,-0.87 0.35,-1.33c0.02,-0.09 0.04,-0.18 0.06,-0.28c0.08,-0.37 0.15,-0.75 0.21,-1.14c0.02,-0.16 0.05,-0.31 0.07,-0.47c0.05,-0.35 0.09,-0.7 0.12,-1.06c0.01,-0.15 0.03,-0.3 0.04,-0.46c0.03,-0.5 0.06,-1.01 0.06,-1.53l0,-3l0.59,0l3.71,3.71c0.19,0.19 0.44,0.29 0.71,0.29l20.93,0c-0.23,6.32 -2.62,9.56 -5.02,10l-6.92,0l-17.33,0zm22.3,16l-1.94,0c-0.57,0 -1.03,-0.46 -1.03,-1.03l0,-12.97l4,0l0,6l0,6.97c0,0.57 -0.46,1.03 -1.03,1.03zm3.03,-2l0,-4l10,0l0,4l-10,0zm16,4.91c0,0.6 -0.49,1.09 -1.09,1.09l-1.82,0c-0.6,0 -1.09,-0.49 -1.09,-1.09l0,-2.91l0,-8l0,-3.91c0,-0.6 0.49,-1.09 1.09,-1.09l1.82,0c0.6,0 1.09,0.49 1.09,1.09l0,14.82z" transform = "matrix(0.627512,0,0,0.6275123,-1.274466,-1.274465)" vector-effect="non-scaling-stroke" pen = "0.6275126,0.6275129" />
<circle style="fill:Black;stroke:none; stroke-width:1" cx = "32.051" cy = "27.026" r = "0.01041667in" transform = "matrix(0.6275121,0,0,0.6275122,-1.274465,-1.274465)" vector-effect="non-scaling-stroke" pen = "0.6275128,0.6275128" />
<circle style="fill:Black;stroke:none; stroke-width:1" cx = "28.051" cy = "27.026" r = "0.01041667in" transform = "matrix(0.6275121,0,0,0.6275122,-1.274465,-1.274465)" vector-effect="non-scaling-stroke" pen = "0.6275129,0.6275128" />
<circle style="fill:Black;stroke:none; stroke-width:1" cx = "24.051" cy = "27.026" r = "0.01041667in" transform = "matrix(0.6275121,0,0,0.6275122,-1.274465,-1.274465)" vector-effect="non-scaling-stroke" pen = "0.6275129,0.6275128" />
</g>
</g>
</svg>
