<?xml version="1.0" encoding="iso-8859-1"?>
<!-- Generator: Adobe Illustrator 19.0.0, SVG Export Plug-In . SVG Version: 6.00 Build 0)  -->
<svg version="1.1" id="Layer_1" xmlns="http://www.w3.org/2000/svg" xmlns:xlink="http://www.w3.org/1999/xlink" x="0px" y="0px"
	 viewBox="0 0 456 456" style="enable-background:new 0 0 456 456;" xml:space="preserve">
<g>
	<g>
		<g>
			<path d="M390,137.5h-32.49C327.9,95.15,279.8,70,228,70c-51.81,0-99.9,25.15-129.52,67.5H66c-36.39,0-66,29.61-66,66v49
				c0,36.39,29.61,66,66,66h32.48C128.1,360.85,176.19,386,228,386c51.8,0,99.9-25.15,129.51-67.5H390c36.39,0,66-29.61,66-66v-49
				C456,167.11,426.39,137.5,390,137.5z M94.5,302.17c-0.79,0-1.56,0.12-2.28,0.33H66c-27.57,0-50-22.43-50-50v-49
				c0-27.57,22.43-50,50-50h36.72c2.68,0,5.19-1.35,6.67-3.59C135.8,109.89,180.14,86,228,86c42.9,0,82.96,19.2,109.82,52h-66.99
				c-24.35,0-44.17,19.81-44.17,44.17V274c0,15.53-12.63,28.17-28.16,28.17H94.5z M440,252.5c0,27.57-22.43,50-50,50h-36.72
				c-2.69,0-5.2,1.35-6.68,3.59C320.2,346.11,275.86,370,228,370c-42.83,0-82.82-19.14-109.68-51.83h80.18
				c24.35,0,44.16-19.82,44.16-44.17v-91.83c0-15.53,12.64-28.17,28.17-28.17h86.83c0.98,0,1.9-0.18,2.77-0.5H390
				c27.57,0,50,22.43,50,50V252.5z"/>
			<path d="M368.5,215c-4.42,0-8,3.58-8,8v48c0,4.42,3.58,8,8,8c4.42,0,8-3.58,8-8v-48C376.5,218.58,372.92,215,368.5,215z"/>
			<path d="M368.5,190c-4.42,0-8,3.58-8,8v2c0,4.42,3.58,8,8,8c4.42,0,8-3.58,8-8v-2C376.5,193.58,372.92,190,368.5,190z"/>
			<path d="M331.5,204c4.42,0,8-3.58,8-8s-3.58-8-8-8h-39c-3.53,0-6.52,2.29-7.58,5.45c-0.9,1.3-1.42,2.86-1.42,4.55v72
				c0,4.42,3.58,8,8,8c4.42,0,8-3.58,8-8v-29h32c4.42,0,8-3.58,8-8s-3.58-8-8-8h-32v-21H331.5z"/>
			<path d="M145.313,190.21c-4.304-0.998-8.604,1.675-9.606,5.978l-9.208,39.542l-9.208-39.542l-0.007,0.002
				c-0.671-2.872-2.903-5.264-5.97-5.979c-4.305-0.998-8.604,1.675-9.606,5.978L92.5,235.731l-9.208-39.542
				c-1.002-4.304-5.304-6.979-9.606-5.978c-4.303,1.003-6.979,5.304-5.977,9.606l17,73c0.86,3.693,4.149,6.188,7.785,6.188
				c0.601,0,1.211-0.068,1.821-0.21c3.067-0.715,5.298-3.107,5.97-5.979l0.007,0.002l9.208-39.542l9.208,39.542
				c0.86,3.693,4.149,6.188,7.785,6.188c0.601,0,1.211-0.068,1.821-0.21c3.067-0.715,5.298-3.107,5.97-5.979l0.007,0.002l17-73
				C152.292,195.514,149.616,191.213,145.313,190.21z"/>
			<path d="M178.499,215.002c-4.418,0-8,3.582-8,8v48c0,4.418,3.582,8,8,8c4.418,0,8-3.582,8-8v-48
				C186.499,218.584,182.917,215.002,178.499,215.002z"/>
			<path d="M178.499,190.002c-4.418,0-8,3.582-8,8v2c0,4.418,3.582,8,8,8c4.418,0,8-3.582,8-8v-2
				C186.499,193.584,182.917,190.002,178.499,190.002z"/>
		</g>
	</g>
</g>
<g>
</g>
<g>
</g>
<g>
</g>
<g>
</g>
<g>
</g>
<g>
</g>
<g>
</g>
<g>
</g>
<g>
</g>
<g>
</g>
<g>
</g>
<g>
</g>
<g>
</g>
<g>
</g>
<g>
</g>
</svg>
